# AST/ASF file generated using VICON BodyLanguage
# -----------------------------------------------
:version 1.10
:name VICON
:units
  mass 1.0
  length 0.45
  angle deg
:documentation
   .ast/.asf automatically generated from VICON data using
   VICON BodyBuilder and BodyLanguage model FoxedUp or BRILLIANT.MOD
:root
   order TX TY TZ RX RY RZ
   axis XYZ
   position 0 0 0  
   orientation 0 0 0 
:bonedata
  begin
     id 1 
     name lhipjoint
     direction 0.662698 -0.695252 0.27831 
     length 2.53073 
     axis 0 0 0  XYZ
  end
  begin
     id 2 
     name lfemur
     direction 0.34202 -0.939693 0  
     length 7.16147  
     axis 0 0 20  XYZ
    dof rx ry rz
    limits (-160.0 20.0)
           (-70.0 70.0)
           (-60.0 70.0)
  end
  begin
     id 3 
     name ltibia
     direction 0.34202 -0.939693 0   
     length 7.63967   
     axis 0 0 20   XYZ
    dof rx
    limits (-10.0 170.0)
  end
  begin
     id 4 
     name lfoot
     direction 0.0938457 -0.257721 0.961651   
     length 1.89793   
     axis -90 7.62852e-016 20   XYZ
    dof rx rz
    limits (-45.0 90.0)
           (-70.0 20.0)
  end
  begin
     id 5 
     name ltoes
     direction -0.00116841 -0.0030592 0.999995   
     length 0.955649   
     axis -90 7.62852e-016 20   XYZ
    dof rx
    limits (-90.0 20.0)
  end
  begin
     id 6 
     name rhipjoint
     direction -0.649445 -0.705948 0.282592   
     length 2.49238  
     axis 0 0 0  XYZ 
  end
  begin
     id 7 
     name rfemur
     direction -0.34202 -0.939693 0   
     length 6.90728   
     axis 0 0 -20   XYZ
    dof rx ry rz
    limits (-160.0 20.0)
           (-70.0 70.0)
           (-70.0 60.0)
  end
  begin
     id 8 
     name rtibia
     direction -0.34202 -0.939693 0   
     length 7.72868   
     axis 0 0 -20   XYZ
    dof rx
    limits (-10.0 170.0)
 end
 begin
     id 9 
     name rfoot
     direction -0.0920068 -0.252865 0.963117   
     length 1.97476  
     axis -90 -7.62852e-016 -20   XYZ
    dof rx rz
    limits (-45.0 90.0)
           (-20.0 70.0)
  end
  begin
     id 10 
     name rtoes
     direction 0.000391322 0.00230649 0.999997   
     length 0.992641   
     axis -90 -7.62852e-016 -20   XYZ
    dof rx
    limits (-90.0 20.0)
  end
  begin
     id 11 
     name lowerback
     direction -0.00875327 0.998321 -0.0572635   
     length 2.20024   
     axis 0 0 0   XYZ
    dof rx ry rz
    limits (-20.0 45.0)
           (-30.0 30.0)
           (-30.0 30.0)
  end
  begin
     id 12 
     name upperback
     direction 0.00753931 0.999972 -0.000360425   
     length 2.20538   
     axis 0 0 0   XYZ
    dof rx ry rz
    limits (-20.0 45.0)
           (-30.0 30.0)
           (-30.0 30.0)
  end
  begin
     id 13 
     name thorax
     direction 0.0117767 0.999601 0.0256663   
     length 2.21508   
     axis 0 0 0   XYZ
    dof rx ry rz
    limits (-20.0 45.0)
           (-30.0 30.0)
           (-30.0 30.0)
  end
  begin
     id 14 
     name lowerneck
     direction 0.060228 0.994909 0.0807986   
     length 1.7607   
     axis 0 0 0   XYZ
    dof rx ry rz
    limits (-20.0 45.0)
           (-30.0 30.0)
           (-30.0 30.0)
  end
  begin
     id 15 
     name upperneck
     direction -0.0563647 0.959594 -0.275685   
     length 1.75612   
     axis 0 0 0   XYZ
    dof rx ry rz
    limits (-20.0 45.0)
           (-30.0 30.0)
           (-30.0 30.0)
  end
  begin
     id 16
     name head
     direction -0.0161544 0.99458 -0.102714  
     length 1.79288  
     axis 0 0 0   XYZ
    dof rx ry rz
    limits (-20.0 45.0)
           (-30.0 30.0)
           (-30.0 30.0)
  end
  begin
     id 17 
     name lclavicle
     direction 0.93913 0.332189 -0.087669  
     length 3.52087  
     axis 0 0 0   XYZ
    dof ry rz
    limits (-20.0 10.0)
           (0.0 20.0)
  end
  begin
     id 18 
     name lhumerus
     direction 1 -4.48974e-011 -2.70836e-027   
     length 5.35289   
     axis -180 -30 -90   XYZ
    dof rx ry rz
    limits (-60.0 90.0)
           (-90.0 90.0)
           (-90.0 90.0)
  end
  begin
     id 19
     name lradius
     direction 1 -4.48961e-011 -9.76021e-027   
     length 3.27727   
     axis -180 -30 -90   XYZ
    dof rx
    limits (-10.0 170.0)
  end
  begin
     id 20
     name lwrist
     direction 1 -4.49103e-011 -2.23668e-026   
     length 1.63864   
     axis 1.44924e-014 90 90   XYZ
    dof ry
    limits (-180.0 0.0)
 end
  begin
     id 21 
     name lhand
     direction 1 3.0697e-005 0.000161777   
     length 0.54443   
     axis 2.85318e-014 90 90   XYZ
    dof rx rz
    limits (-90.0 90.0)
           (-45.0 45.0)
  end
  begin
     id 22 
     name lfingers
     direction 1 -4.49027e-011 -8.9447e-026   
     length 0.438912   
     axis 5.70628e-014 90 90   XYZ
    dof rx
    limits (0.0 90.0)
  end
  begin
     id 23
     name lthumb
     direction 0.707058 2.6516e-005 0.707156   
     length 0.630274   
     axis -90 45 -3.53137e-014   XYZ
    dof rx rz
    limits (-45.0 45.0)
           (-45.0 45.0)
  end
  begin
     id 24 
     name rclavicle
     direction -0.95274 0.284984 -0.105215   
     length 3.43401  
     axis 0 0 0   XYZ 
    dof ry rz
    limits (-10.0 20.0)
           (-20.0 0.0)
  end
  begin
     id 25 
     name rhumerus
     direction -0.999999 -0.000575019 -0.00106829  
     length 5.52077   
     axis -180 30 90   XYZ
    dof rx ry rz
    limits (-90.0 60.0)
           (-90.0 90.0)
           (-90.0 90.0)
  end
  begin
     id 26 
     name rradius
     direction -1 -4.4879e-011 -6.35415e-027   
     length 3.32364   
     axis -180 30 90   XYZ
    dof rx
    limits (-10.0 170.0)
  end
  begin
     id 27 
     name rwrist
     direction -1 -4.49048e-011 -9.98542e-027   
     length 1.66182   
     axis 6.32482e-015 -90 -90   XYZ
    dof ry
    limits (-180.0 0.0)
  end
  begin
     id 28
     name rhand
     direction -1 -4.48978e-011 -1.99771e-026   
     length 0.732235   
     axis 1.27479e-014 -90 -90   XYZ
    dof rx rz
    limits (-90.0 90.0)
           (-45.0 45.0)
  end
  begin
     id 29
     name rfingers
     direction -1 -4.49144e-011 -3.99245e-026   
     length 0.590347   
     axis 2.5496e-014 -90 -90   XYZ
    dof rx
    limits (0.0 90.0)
  end
  begin
     id 30
     name rthumb
     direction -0.707107 -6.35121e-011 0.707107   
     length 0.847624   
     axis -90 -45 -2.82974e-014   XYZ
    dof rx rz
    limits (-45.0 45.0)
           (-45.0 45.0)
  end
:hierarchy
  begin
    root lhipjoint rhipjoint lowerback
    lhipjoint lfemur
    lfemur ltibia
    ltibia lfoot
    lfoot ltoes
    rhipjoint rfemur
    rfemur rtibia
    rtibia rfoot
    rfoot rtoes
    lowerback upperback
    upperback thorax
    thorax lowerneck lclavicle rclavicle
    lowerneck upperneck
    upperneck head
    lclavicle lhumerus
    lhumerus lradius
    lradius lwrist
    lwrist lhand lthumb
    lhand lfingers
    rclavicle rhumerus
    rhumerus rradius
    rradius rwrist
    rwrist rhand rthumb
    rhand rfingers
  end

#!OML:ASF G:\Work\Work\Patient Classification 1\Elijah\terrain1\Elijah.ASF
:FULLY-SPECIFIED
:DEGREES
316
root 15.9884 22.3628 19.952 6.16682 -2.32816 1.9251
lowerback 7.79691 0.72327 -6.93626
upperback -1.0275 0.146898 -2.65412
thorax -5.47983 0.241556 1.10058
lowerneck -18.2938 11.1612 12.228
upperneck 12.4901 15.6265 -18.7504
head 9.54273 6.3151 -6.09509
rclavicle -1.78906e-015 6.36111e-015
rhumerus -43.9959 2.33341 -86.6644
rradius 44.8505
rwrist -4.17793
rhand -14.2754 20.6276
rfingers 7.12502
rthumb 11.8636 -9.01631
lclavicle -1.78906e-015 6.36111e-015
lhumerus -30.1169 2.7009 78.7189
lradius 50.7326
lwrist 11.6881
lhand -20.152 24.4857
lfingers 7.12502
lthumb 6.19303 54.3752
rfemur -48.1536 -14.4697 22.8968
rtibia 97.4077
rfoot 8.07869 2.9502
rtoes -17.2701
lfemur -15.5049 -4.00605 -24.8691
ltibia 34.4953
lfoot -12.0464 -9.23291
ltoes -11.1086
317
root 16.0039 22.3811 20.1016 5.94614 -1.70474 2.59524
lowerback 7.41039 0.510674 -7.19993
upperback -0.856625 -0.121417 -2.84958
thorax -5.06216 0.0996307 1.08023
lowerneck -18.2938 11.1612 12.228
upperneck 12.4901 15.6265 -18.7504
head 9.54273 6.3151 -6.09509
rclavicle -2.5842e-015 2.22639e-014
rhumerus -44.0032 2.10577 -86.4044
rradius 44.2629
rwrist -4.02543
rhand -14.2404 20.9636
rfingers 7.12502
rthumb 11.8973 -8.67835
lclavicle -2.5842e-015 2.22639e-014
lhumerus -30.3031 2.38815 78.9142
lradius 51.3372
lwrist 11.8858
lhand -20.1678 24.6266
lfingers 7.12502
lthumb 6.17784 54.5165
rfemur -48.5379 -15.7857 22.2715
rtibia 97.3845
rfoot 6.82196 3.44768
rtoes -17.4589
lfemur -14.3739 -4.48774 -25.742
ltibia 33.9949
lfoot -12.1767 -9.33361
ltoes -11.405
318
root 16.0224 22.3834 20.2218 5.78257 -1.20974 3.61467
lowerback 7.0438 0.364725 -7.80154
upperback -0.712824 -0.335101 -3.15864
thorax -4.68915 -0.00765578 1.11828
lowerneck -18.2938 11.1612 12.228
upperneck 12.4901 15.6265 -18.7504
head 9.54273 6.3151 -6.09509
rclavicle -3.97569e-016 -2.06736e-014
rhumerus -44.1495 1.85148 -86.1711
rradius 43.8731
rwrist -3.96914
rhand -14.4188 21.2797
rfingers 7.12502
rthumb 11.7253 -8.3721
lclavicle -3.97569e-016 -2.06736e-014
lhumerus -30.5003 2.27334 79.0939
lradius 51.9039
lwrist 11.8348
lhand -19.9042 24.9968
lfingers 7.12502
lthumb 6.43229 54.8791
rfemur -49.3363 -17.0904 21.3837
rtibia 97.4424
rfoot 5.83069 3.85152
rtoes -18.6446
lfemur -13.5098 -4.94652 -27.0239
ltibia 33.7878
lfoot -12.4749 -9.24539
ltoes -12.0695
319
root 15.9817 22.3723 20.3203 5.91432 -1.79496 3.13535
lowerback 6.76653 0.447148 -8.01516
upperback -0.383716 -0.174943 -2.82654
thorax -4.19688 0.0577133 1.5696
lowerneck -18.2938 11.1612 12.228
upperneck 12.4901 15.6265 -18.7504
head 9.54273 6.3151 -6.09509
rclavicle -7.05686e-015 1.59028e-014
rhumerus -43.2315 2.21007 -86.1125
rradius 43.1613
rwrist -4.14513
rhand -14.6042 21.5101
rfingers 7.12502
rthumb 11.5464 -8.15189
lclavicle -7.05686e-015 1.59028e-014
lhumerus -29.8123 2.86862 79.1939
lradius 52.4121
lwrist 11.7867
lhand -19.6824 25.532
lfingers 7.12502
lthumb 6.64646 55.4076
rfemur -50.9473 -16.1861 22.9062
rtibia 97.2835
rfoot 5.6862 2.70543
rtoes -17.8974
lfemur -13.1917 -4.54604 -26.4132
ltibia 33.4004
lfoot -12.5339 -8.9003
ltoes -12.2293
320
root 15.9801 22.3666 20.4038 5.77338 -1.48281 2.95139
lowerback 7.46964 0.381237 -7.69137
upperback -0.787946 -0.335448 -2.76273
thorax -5.0069 0.0060494 1.46942
lowerneck -18.2938 11.1612 12.228
upperneck 12.4901 15.6265 -18.7504
head 9.54273 6.3151 -6.09509
rclavicle 9.93923e-017 -2.22639e-014
rhumerus -43.9662 2.05771 -85.9519
rradius 42.6035
rwrist -4.04427
rhand -14.4787 21.5638
rfingers 7.12502
rthumb 11.6675 -8.09133
lclavicle 9.93923e-017 -2.22639e-014
lhumerus -30.6787 2.37007 79.3434
lradius 53.1039
lwrist 12.2379
lhand -19.6412 26.8721
lfingers 7.12502
lthumb 6.68624 56.7466
rfemur -51.9284 -16.6278 23.6759
rtibia 96.9389
rfoot 5.22248 2.29265
rtoes -17.3958
lfemur -12.6023 -4.75183 -26.2521
ltibia 33.1202
lfoot -12.4954 -8.88248
ltoes -11.3494
321
root 15.9838 22.3539 20.4889 5.73985 -1.26757 3.36308
lowerback 7.77136 0.306436 -7.99465
upperback -0.86142 -0.503237 -2.81087
thorax -5.24171 -0.0595728 1.60656
lowerneck -18.2938 11.1612 12.228
upperneck 12.4901 15.6265 -18.7504
head 9.54273 6.3151 -6.09509
rclavicle 9.93923e-017 2.62396e-014
rhumerus -44.0248 1.8803 -85.6647
rradius 42.1035
rwrist -3.64414
rhand -14.2817 21.5796
rfingers 7.12502
rthumb 11.8575 -8.0647
lclavicle 9.93923e-017 2.62396e-014
lhumerus -30.6723 2.21758 79.5472
lradius 53.1678
lwrist 12.3876
lhand -19.5925 28.0882
lfingers 7.12502
lthumb 6.73316 57.9611
rfemur -53.1433 -17.1371 23.7817
rtibia 96.5799
rfoot 4.72095 2.07404
rtoes -18.1878
lfemur -12.1611 -5.04565 -26.7711
ltibia 33.0543
lfoot -12.718 -8.73023
ltoes -11.5612
322
root 15.9471 22.3443 20.6357 5.71721 -1.68314 3.47183
lowerback 6.70272 0.402039 -8.60418
upperback -0.239088 -0.258171 -2.67588
thorax -4.00043 0.0205641 2.0627
lowerneck -18.2938 11.1612 12.228
upperneck 12.4901 15.6265 -18.7504
head 9.54273 6.3151 -6.09509
rclavicle 1.98785e-015 -4.13472e-014
rhumerus -43.0739 1.7904 -85.4052
rradius 41.4617
rwrist -3.40839
rhand -14.295 21.4347
rfingers 7.12502
rthumb 11.8447 -8.21033
lclavicle 1.98785e-015 -4.13472e-014
lhumerus -29.6269 2.62464 79.7552
lradius 52.9547
lwrist 12.0811
lhand -19.756 27.1446
lfingers 7.12502
lthumb 6.5754 57.0225
rfemur -53.9638 -16.6105 24.301
rtibia 95.9837
rfoot 4.23264 1.41851
rtoes -18.1445
lfemur -11.3829 -4.8576 -26.8907
ltibia 32.6821
lfoot -13.1418 -8.4072
ltoes -12.1
323
root 15.9547 22.3258 20.6839 5.69828 -1.37679 3.78339
lowerback 8.16799 0.446032 -8.55173
upperback -1.10174 -0.436548 -2.83616
thorax -5.72846 0.011806 1.87844
lowerneck -18.2938 11.1612 12.228
upperneck 12.4901 15.6265 -18.7504
head 9.54273 6.3151 -6.09509
rclavicle 9.64106e-015 -1.35174e-014
rhumerus -44.3911 1.567 -85.2994
rradius 40.9051
rwrist -3.38829
rhand -14.3848 21.1657
rfingers 7.12502
rthumb 11.758 -8.48425
lclavicle 9.64106e-015 -1.35174e-014
lhumerus -31.0987 2.30443 79.8464
lradius 53.6182
lwrist 11.9578
lhand -19.6793 26.0807
lfingers 7.12502
lthumb 6.64944 55.9563
rfemur -55.2322 -16.9608 24.566
rtibia 95.3685
rfoot 3.9874 1.09839
rtoes -18.3326
lfemur -11.0011 -5.14187 -27.2811
ltibia 32.3676
lfoot -13.0628 -8.22997
ltoes -11.6469
324
root 15.9474 22.316 20.8217 5.49577 -1.08611 4.40985
lowerback 7.46086 0.359062 -9.10284
upperback -0.852924 -0.510781 -3.01638
thorax -5.05531 -0.0417118 2.0056
lowerneck -18.2938 11.1612 12.228
upperneck 12.4901 15.6265 -18.7504
head 9.54273 6.3151 -6.09509
rclavicle -1.33186e-014 -1.19271e-014
rhumerus -44.2995 1.30204 -85.1566
rradius 40.0854
rwrist -3.07966
rhand -14.5464 21.6105
rfingers 7.12502
rthumb 11.6022 -8.04834
lclavicle -1.33186e-014 -1.19271e-014
lhumerus -31.3618 2.30303 79.928
lradius 54.1754
lwrist 11.9192
lhand -19.3968 25.9978
lfingers 7.12502
lthumb 6.92214 55.8647
rfemur -55.5988 -17.5889 24.2564
rtibia 94.4816
rfoot 3.07863 1.15427
rtoes -19.5925
lfemur -9.83947 -5.20491 -28.0449
ltibia 31.7136
lfoot -13.1809 -8.23389
ltoes -11.2269
325
root 15.9014 22.2935 20.9486 5.60095 -1.7449 4.33246
lowerback 7.2617 0.535777 -9.67822
upperback -0.757743 -0.285584 -2.80717
thorax -4.86388 0.0774027 2.5181
lowerneck -18.2938 11.1612 12.228
upperneck 12.4901 15.6265 -18.7504
head 9.54273 6.3151 -6.09509
rclavicle -3.27995e-015 4.77083e-015
rhumerus -43.7839 1.24192 -84.8894
rradius 39.3321
rwrist -2.66819
rhand -14.5566 21.9831
rfingers 7.12502
rthumb 11.5924 -7.67631
lclavicle -3.27995e-015 4.77083e-015
lhumerus -31.1264 2.55509 80.076
lradius 54.1568
lwrist 11.8206
lhand -19.2774 25.8527
lfingers 7.12502
lthumb 7.03736 55.7157
rfemur -56.5327 -16.5005 25.0893
rtibia 93.38
rfoot 2.73978 0.253513
rtoes -20.0942
lfemur -9.32195 -4.74504 -27.9221
ltibia 31.2584
lfoot -13.4559 -7.84056
ltoes -11.7122
326
root 15.9236 22.2905 21.1145 5.15523 -0.941835 4.77537
lowerback 7.3955 0.231584 -9.5721
upperback -0.492512 -0.681265 -2.94059
thorax -4.61481 -0.139128 2.36588
lowerneck -18.2938 11.1612 12.228
upperneck 12.4901 15.6265 -18.7504
head 9.54273 6.3151 -6.09509
rclavicle 1.59028e-015 1.74931e-014
rhumerus -43.6056 1.14569 -84.6966
rradius 38.6657
rwrist -2.39419
rhand -14.255 21.4318
rfingers 7.12502
rthumb 11.8833 -8.211
lclavicle 1.59028e-015 1.74931e-014
lhumerus -31.1651 2.55757 80.1684
lradius 54.1046
lwrist 11.7165
lhand -19.0359 26.1514
lfingers 7.12502
lthumb 7.27052 56.0065
rfemur -56.0798 -17.8842 24.5974
rtibia 92.1619
rfoot 2.00514 0.57619
rtoes -19.2573
lfemur -7.67995 -5.09524 -28.6032
ltibia 30.6701
lfoot -13.8724 -8.00111
ltoes -11.7721
